<!-- Generated by IcoMoon.io -->
<svg version="1.1" xmlns="http://www.w3.org/2000/svg" width="27" height="32" viewBox="0 0 27 32">
<title>hourglass-start</title>
<path d="M2.286 29.714c0-6.607 3.161-11.393 6.661-13.714-3.501-2.321-6.661-7.107-6.661-13.714h-1.714c-0.321 0-0.571-0.25-0.571-0.571v-1.143c0-0.321 0.25-0.571 0.571-0.571h26.286c0.321 0 0.571 0.25 0.571 0.571v1.143c0 0.321-0.25 0.571-0.571 0.571h-1.714c0 6.607-3.161 11.393-6.661 13.714 3.501 2.321 6.661 7.107 6.661 13.714h1.714c0.321 0 0.571 0.25 0.571 0.571v1.143c0 0.321-0.25 0.571-0.571 0.571h-26.286c-0.321 0-0.571-0.25-0.571-0.571v-1.143c0-0.321 0.25-0.571 0.571-0.571h1.714zM11.822 17.072c-3.607 1.358-7.25 6.125-7.25 12.642h18.286c0-6.518-3.642-11.286-7.25-12.642-0.447-0.161-0.75-0.59-0.75-1.072s0.304-0.911 0.75-1.072c1.536-0.571 3.089-1.786 4.358-3.501h-12.501c1.267 1.714 2.822 2.928 4.358 3.501 0.447 0.161 0.75 0.59 0.75 1.072s-0.304 0.911-0.75 1.072z"></path>
</svg>
