<?xml version="1.0" encoding="utf-8"?>
<svg version="1.1" xmlns="http://www.w3.org/2000/svg" xmlns:xlink="http://www.w3.org/1999/xlink" viewBox="0 0 70 70">
<rect fill="#FFF" width="70" height="70"/>
<path fill="#BB252B" d="M61.6,0H8.4L35,17.1L61.6,0z"/>
<path fill="#BB252B" d="M70,39.6V5.4L43.4,22.5L70,39.6z"/>
<path fill="#BB252B" d="M0,5.4v34.1l26.5-17.1L0,5.4z"/>
<path fill="#BB252B" d="M35,27.9L8.3,45.1h53.4L35,27.9z"/>
<polygon fill="#304196" points="41.2,22.5 70,41 70,45.1 63.9,45.1 35,26.5 6.1,45.1 0,45.1 0,41 28.8,22.5 0,4 0,0 6.2,0 35,18.5
	63.8,0 70,0 70,4 "/>
<path fill="#DEAC33" d="M70,45.1H0v22.5h70V45.1z"/>
<path fill="#1E1B1C" d="M70,50.3v-4H0v4h2.2v4.1H0v4h2.2v4.1H0v4l28.6,0V69h7.1v-2.4l34.3,0v-4h-2.2v-4.1H70v-4h-2.2v-4.1H70z
	 M17.4,60.8l-1.5-2.4h1.5V60.8z M17.4,54.4h-1.9c0.3-0.8,0.5-1,0.6-1.1h1.4V54.4z M26.8,59.9h-1.9v-1.5h1.9V59.9z M26.8,54.4h-1.9
	v-4.1h1.9V54.4z M43.7,62.5h-1.9v-4.1h1.9V62.5z M43.7,54.4h-1.9v-1.5h1.9V54.4z M60.4,62.5h-1.9v-3.4h1.9V62.5z M60.4,52.4h-1.9
	v-2.1h1.9V52.4z"/>
<path fill="#FFF" d="M17.9,64.8h-4.7L8.9,58h-1v6.8h-4V48h4v6.9c0.5,0,1-0.1,1.4-0.4c0.3-0.3,0.7-0.8,1.1-1.7
	c0.1-0.3,0.3-0.6,0.4-0.9l0.4-1c0.5-1,1-1.7,1.7-2.2c0.7-0.4,1.5-0.7,2.6-0.7c0.4,0,0.6,0,0.9,0c0.2,0,0.4,0,0.5,0v3.6H16
	c-0.4,0-0.9,0.2-1.2,0.4c-0.3,0.3-0.7,0.9-1,1.8c-0.2,0.6-0.5,1.1-0.8,1.6c-0.2,0.3-0.4,0.5-0.7,0.7L17.9,64.8z"/>
<path fill="#FFF" d="M49.4,64.8h-4V51.2H40v13.6h-4V48h13.4L49.4,64.8z"/>
<path fill="#FFF" d="M66.1,64.8h-4v-7.5h-5.4v7.5h-4V48h4v6.2h5.4V48h4V64.8z"/>
<path fill="#FFF" d="M30.3,67.6H34v-6h-1.5V48h-4v13.6h-5.4V48h-4v16.8h11.2V67.6z"/>
</svg>
