<svg xmlns="http://www.w3.org/2000/svg" width="24" height="28"><path d="M9.094 20.438c0 .844-.766 1.031-1.453 1.031-.672 0-1.672-.109-1.672-.984 0-.859.844-1 1.531-1 .656 0 1.594.109 1.594.953zm-.563-7.282c0 .781-.313 1.328-1.156 1.328-.859 0-1.203-.5-1.203-1.313s.313-1.406 1.203-1.406c.797 0 1.156.656 1.156 1.391zm2.594-1.172v-1.953c-.672.25-1.391.453-2.109.453a3.444 3.444 0 00-1.719-.453c-1.781 0-3.187 1.313-3.187 3.125 0 .969.641 2.312 1.609 2.641v.047c-.5.219-.594.828-.594 1.328 0 .516.187.938.641 1.203v.047C4.704 18.766 4 19.438 4 20.594c0 1.984 1.891 2.547 3.547 2.547 2 0 3.5-.734 3.5-2.938 0-1.563-1.422-2.031-2.719-2.266-.438-.078-1.188-.391-1.188-.938 0-.516.281-.734.766-.812C9.5 15.874 10.515 14.64 10.515 13c0-.281-.063-.547-.156-.812.25-.063.516-.125.766-.203zm.922 6.547h2.141c-.031-.422-.031-.859-.031-1.281v-6.047c0-.359 0-.719.031-1.078h-2.141c.047.359.047.75.047 1.109v6.125c0 .391 0 .781-.047 1.172zm7.953-.25V16.39a1.855 1.855 0 01-1.062.328c-.703 0-.828-.703-.828-1.281v-3.516h.812c.281 0 .547.031.828.031v-1.828h-1.641c0-.531-.031-1.062.047-1.594h-2.188c.047.281.063.562.063.859v.734h-.938v1.828c.187-.016.375-.047.578-.047.109 0 .234.016.359.016v.031h-.031v3.391c0 1.687.25 3.313 2.312 3.313.578 0 1.172-.094 1.687-.375zM14.438 7.25c0-.734-.547-1.422-1.313-1.422s-1.328.672-1.328 1.422c0 .734.578 1.391 1.328 1.391s1.313-.672 1.313-1.391zM24 6.5v15c0 2.484-2.016 4.5-4.5 4.5h-15A4.502 4.502 0 010 21.5v-15C0 4.016 2.016 2 4.5 2h15C21.984 2 24 4.016 24 6.5z"/></svg>